<svg version="1" xmlns="https://www.w3.org/2000/svg" width="1026.667" height="1026.667" viewBox="0 0 770.000000 770.000000"><path d="M385.5 43.7C319.6 46.1 255 68.1 201 106.4c-33.2 23.6-64 55.5-87.5 90.6-9.5 14.2-21.1 34.8-20.1 35.7.3.3 24-3.6 52.6-8.7l52-9.4 14.8-14.6c24-23.8 40.4-35.8 68.7-50.1 25.8-13 51-21.2 79-25.5 14.9-2.4 59.8-2.7 73.5-.6 31.6 4.9 53.9 11.7 81.1 24.9l13.7 6.5 51.8-9.2c28.6-5.1 52.1-9.5 52.4-9.7.2-.2-2.2-2.8-5.4-5.6-47.5-41.9-105.7-70.5-166.1-81.6-21.5-4-53.7-6.3-76-5.4zM591 169.6c-144.7 26.2-267.7 48.3-468.8 84.3-57.9 10.3-105.4 19-105.6 19.2-.3.4 10.2 60.1 10.7 60.5.1.1 43.6-7.7 96.7-17.2 172.7-31.1 299.6-53.9 463-83.2 146.4-26.3 160.5-29 160.8-30.8.3-2.4-9.7-57.7-10.6-58.5-.4-.3-66.2 11.3-146.2 25.7zM667 244.3c-21.2 3.8-38.7 7.1-38.9 7.3-.2.2 3.3 7.7 7.7 16.6 9.1 18.4 13.8 30.5 18.7 48.3 24.9 91.1-1.2 189.6-67.9 256.1-6.1 6-15.1 14.2-20.1 18.2l-9 7.2-.3-59.8-.2-59.7-39-39-39-39v159.3c0 87.5.3 159.2.7 159.2.3 0 6.9-1.8 14.5-4 57.7-16.8 111-48.8 151.5-91.3 25.2-26.4 42.5-50.9 58.7-82.7 8.9-17.5 14.6-31.1 20.4-49 22.7-70.4 22.3-146.5-1.1-215.5-7.3-21.2-15.2-39.6-17.1-39.4-.6.1-18.4 3.3-39.6 7.2zM380.7 341.8L361 361.5l.2 182 .3 181.9 4 1c5.2 1.3 67 1.2 71-.1l3-.9.3-182 .2-181.9-19.8-19.8-19.7-19.7-19.8 19.8zM98 346.4l-39.5 7.2-.6 6c-1.1 9.6-1 43 .1 55.4 4.8 52.9 20.8 101.5 48.8 148 14 23.4 26.7 39.6 48.6 61.8 44.5 45.3 92.1 73.5 153.3 90.8 6.7 1.9 12.4 3.4 12.7 3.4.3 0 .6-71.7.6-159.2V400.5l-39 39-39 39-.2 59.7-.3 59.8-8.7-7c-12.1-9.7-29.7-27.5-39.8-40-38.5-48.1-59-105.9-59-166 0-11.5 2-34.9 3.6-42.8.5-2.4.3-3.2-.7-3.1-.8.1-19.2 3.4-40.9 7.3z"/></svg>